<svg id="logo" xmlns="http://www.w3.org/2000/svg" xmlns:xlink="http://www.w3.org/1999/xlink" viewBox="0 0 227.76 271.94"><defs><style>.cls-1{mask:url(#mask);}.cls-2{mix-blend-mode:multiply;fill:url(#radial-gradient);}.cls-3{mask:url(#mask-2);}.cls-4{fill:url(#linear-gradient);}.cls-12,.cls-5,.cls-6,.cls-7{fill-rule:evenodd;}.cls-5{fill:url(#linear-gradient-2);}.cls-6{fill:url(#linear-gradient-3);}.cls-7{fill:#f2e8d6;}.cls-8{font-size:86.83px;fill:#f9f9f9;font-family:URWAgendaW01-Light;font-weight:300;}.cls-9{letter-spacing:-0.09em;}.cls-10{letter-spacing:-0.04em;}.cls-11{fill:#424747;stroke:#434747;stroke-miterlimit:10;stroke-width:3px;}.cls-12{fill:#a1853e;}.cls-13{filter:url(#luminosity-noclip-2);}.cls-14{filter:url(#luminosity-noclip);}</style><filter id="luminosity-noclip" x="216.46" y="-8587" width="176.62" height="32766" filterUnits="userSpaceOnUse" color-interpolation-filters="sRGB"><feFlood flood-color="#fff" result="bg"/><feBlend in="SourceGraphic" in2="bg"/></filter><mask id="mask" x="216.46" y="-8587" width="176.62" height="32766" maskUnits="userSpaceOnUse"><g class="cls-14"/></mask><radialGradient id="radial-gradient" cx="304.77" cy="318.29" r="88.31" gradientUnits="userSpaceOnUse"><stop offset="0" stop-color="#fff"/><stop offset="1"/></radialGradient><filter id="luminosity-noclip-2" x="216.46" y="229.98" width="176.62" height="176.62" filterUnits="userSpaceOnUse" color-interpolation-filters="sRGB"><feFlood flood-color="#fff" result="bg"/><feBlend in="SourceGraphic" in2="bg"/></filter><mask id="mask-2" x="21.51" y="0.81" width="176.62" height="176.62" maskUnits="userSpaceOnUse"><g class="cls-13"><g transform="translate(-194.95 -229.17)"><g class="cls-1"><circle class="cls-2" cx="304.77" cy="318.29" r="88.31"/></g></g></g></mask><linearGradient id="linear-gradient" x1="109.82" y1="177.44" x2="109.82" y2="0.81" gradientUnits="userSpaceOnUse"><stop offset="0.21" stop-color="#db7"/><stop offset="0.67" stop-color="#a48048"/><stop offset="0.85" stop-color="#e5be7f"/><stop offset="1" stop-color="#b18d4c"/></linearGradient><linearGradient id="linear-gradient-2" x1="304.77" y1="406.6" x2="304.77" y2="229.17" xlink:href="#linear-gradient"/><linearGradient id="linear-gradient-3" x1="304.67" y1="370.5" x2="304.67" y2="264.66" xlink:href="#linear-gradient"/></defs><g id="water_t"><g class="cls-3"><circle class="cls-4" cx="109.82" cy="89.13" r="88.31"/></g><path class="cls-5" d="M304.76,229.17c56.62,8.43,91.77,69.4,59.55,116.46-16.29,23.77-46.56,34.12-73.2,21.9,28,22.66,70.35,3.82,86.71-26.14,11.57-21.16,12.07-45.43,3.77-67.85,21,53.22-14.2,114.14-71.06,109.77-28.75-2.21-52.83-23.24-55.57-52.43-5.61,35.57,31.85,62.81,66,62,24.13-.55,45.37-12.25,60.65-30.64C344.18,409.34,270,405.71,248.92,350.74c-9.64-25.13-2.58-53.7,19.69-69.48-33.6,12.88-38.47,59-20.71,88.14,12.54,20.6,33.3,33.17,56.86,37.2-59.5-8.85-93.44-74.93-56.36-120.65,16.94-20.92,45.21-29.06,70-17.68-28-22.66-70.35-3.82-86.71,26.11-11.57,21.19-12.07,45.43-3.77,67.88C207,309,242.15,248.09,299,252.46c28.75,2.21,52.83,23.27,55.57,52.43,5.62-35.54-31.85-62.81-66-62-24.14.58-45.38,12.28-60.66,30.67,37.42-47.11,111.62-43.45,132.67,11.49,9.64,25.13,2.58,53.72-19.68,69.51,33.59-12.91,38.47-59,20.71-88.17-12.55-20.6-33.31-33.15-56.89-37.2Z" transform="translate(-194.95 -229.17)"/><path class="cls-6" d="M326.5,264.66c17.18,14.1,24.55,34.68,19.13,56.26,5.61,6.48,14.25-10.28,15.73-14.79-1.85,22.82-15.18,41.37-37,48.8-3.74,8,14,7.09,18.39,6.19-36.86,17.92-59.76-8.3-62.16-8.22-8.14.27-.66,14.28,1.79,17.6C250.72,345.55,264.58,314,263.49,312c-3.76-7.41-13.43,5.21-15.51,9,5-21.63,20.65-37.23,42.68-40.63,5.17-7.51-12.44-10.07-17.31-10,21-6.14,41.71-.58,56,16,8.7-.92.08-17.7-2.89-21.68Z" transform="translate(-194.95 -229.17)"/><path id="center" class="cls-7" d="M340.08,318.19a35.1,35.1,0,0,1-3.7,15.73,35.44,35.44,0,1,1-62.93-32.62l0-.05a35.45,35.45,0,0,1,66.61,16.94Z" transform="translate(-194.95 -229.17)"/></g><text class="cls-8" transform="translate(0 255.88)"><tspan class="cls-9">L</tspan><tspan class="cls-10" x="36.3" y="0">Y</tspan><tspan x="83.1" y="0">SOL</tspan></text><line class="cls-11" x1="51.62" y1="226.95" x2="71.13" y2="234.48"/><path class="cls-12" d="M403.59,393.55a6.38,6.38,0,0,1,4.69,2,6.47,6.47,0,0,1,1.86,4.71,6.32,6.32,0,0,1-1.92,4.52,6.75,6.75,0,0,1-4.65,1.91,6.51,6.51,0,0,1-4.64-2,6.39,6.39,0,0,1-1.89-4.58,6.68,6.68,0,0,1,2-4.69,6.28,6.28,0,0,1,4.56-1.85Zm0-1.3a7.61,7.61,0,0,0-6.68,3.78,7.88,7.88,0,0,0-1.14,4.08,7.89,7.89,0,0,0,7.82,7.84,7.91,7.91,0,0,0,5.55-2.29,7.56,7.56,0,0,0,2.31-5.55,7.8,7.8,0,0,0-7.86-7.86Zm-3.24,3.35v8.7h2.11v-3.56h1.05l1.66,3.56h2.35l-1.94-3.89a2.32,2.32,0,0,0,1.9-2.31c0-1.66-1.23-2.5-3.72-2.5Zm2.11,1.34h.93c1.28,0,1.91.38,1.91,1.29s-.59,1.23-1.79,1.23h-1.05v-2.52Z" transform="translate(-194.95 -229.17)"/></svg>